<?xml version="1.0" encoding="UTF-8" standalone="no"?>
<!-- Created with Inkscape (http://www.inkscape.org/) -->
<svg
   xmlns:svg="http://www.w3.org/2000/svg"
   xmlns="http://www.w3.org/2000/svg"
   version="1.0"
   width="545"
   height="249"
   id="svg2">
  <defs
     id="defs25" />
  <g
     id="g2414">
    <g
       id="g6"
       style="font-size:60px;stroke:#000000;stroke-width:4;stroke-linecap:round;font-family:Helvetica">
      <polyline
         points="136,187.8 199.6,151.1 291.3,204 382.9,151.1 444,186.4"
         id="polyline8"
         style="fill:none" />
      <line
         x1="374.89999"
         y1="155"
         x2="374.89999"
         y2="68"
         id="line10" />
      <line
         x1="390.89999"
         y1="155"
         x2="390.89999"
         y2="68"
         id="line12" />
    </g>
    <path
       d="M 18.004687,220 L 18.004687,177.05078 L 23.688281,177.05078 L 23.688281,194.6875 L 46.0125,194.6875 L 46.0125,177.05078 L 51.696094,177.05078 L 51.696094,220 L 46.0125,220 L 46.0125,199.75586 L 23.688281,199.75586 L 23.688281,220 L 18.004687,220 z M 79.213183,229.19873 L 79.213183,233 L 57.921679,233 C 57.892381,232.04785 58.04619,231.13233 58.383105,230.25342 C 58.925095,228.80323 59.793014,227.37501 60.986865,225.96875 C 62.180707,224.56251 63.905559,222.93653 66.161426,221.09082 C 69.662389,218.21974 72.028109,215.94557 73.258594,214.26831 C 74.489044,212.59108 75.104278,211.00539 75.104297,209.51123 C 75.104278,207.94387 74.543976,206.62185 73.423388,205.54517 C 72.302767,204.46853 70.841587,203.9302 69.039844,203.93018 C 67.135536,203.9302 65.6121,204.50149 64.469531,205.64404 C 63.326946,206.78665 62.748333,208.36868 62.733691,210.39014 L 58.66875,209.97266 C 58.947068,206.94046 59.99443,204.62967 61.81084,203.04028 C 63.627239,201.45096 66.066201,200.65628 69.127734,200.65625 C 72.218539,200.65628 74.664825,201.51322 76.466601,203.22705 C 78.268337,204.94095 79.169215,207.06497 79.169238,209.59912 C 79.169215,210.88821 78.905544,212.15529 78.378222,213.40039 C 77.850857,214.64553 76.975614,215.95656 75.75249,217.3335 C 74.529328,218.71046 72.496859,220.60011 69.655078,223.00244 C 67.28202,224.99464 65.758584,226.34595 65.084765,227.0564 C 64.410929,227.76685 63.854289,228.48096 63.414844,229.19873 L 79.213183,229.19873 z M 86.178515,220 L 86.178515,177.05078 L 92.008594,177.05078 L 114.56719,210.77148 L 114.56719,177.05078 L 120.01641,177.05078 L 120.01641,220 L 114.18633,220 L 91.627734,186.25 L 91.627734,220 L 86.178515,220 z"
       id="text14"
       style="font-size:60px;stroke-linecap:round;font-family:Helvetica" />
    <path
       d="M 360.1004,40.38203 C 360.1004,33.253152 362.01446,27.672103 365.84259,23.638866 C 369.6707,19.605705 374.6121,17.589105 380.66681,17.589062 C 384.63163,17.589105 388.20584,18.53637 391.38947,20.430859 C 394.57302,22.325429 396.99978,24.967028 398.66974,28.355663 C 400.33962,31.744365 401.17458,35.587134 401.17462,39.883984 C 401.17458,44.239469 400.29567,48.13595 398.5379,51.573437 C 396.78005,55.010943 394.28982,57.613479 391.0672,59.381054 C 387.84451,61.148632 384.36795,62.03242 380.63751,62.032421 C 376.59452,62.03242 372.98125,61.055859 369.79767,59.102734 C 366.61407,57.149613 364.20196,54.4836 362.56134,51.104687 C 360.92071,47.725794 360.1004,44.151579 360.1004,40.38203 L 360.1004,40.38203 z M 365.95978,40.469921 C 365.95977,45.645718 367.35137,49.722862 370.13458,52.701366 C 372.91777,55.679888 376.40898,57.169144 380.60822,57.16914 C 384.88553,57.169144 388.40604,55.665239 391.16974,52.657421 C 393.93337,49.64962 395.31521,45.382046 395.31525,39.854687 C 395.31521,36.358618 394.72439,33.306863 393.54279,30.699413 C 392.36111,28.092025 390.6326,26.070542 388.35724,24.63496 C 386.08182,23.199451 383.52811,22.481679 380.69611,22.48164 C 376.67265,22.481679 373.21074,23.863513 370.31036,26.627148 C 367.40996,29.390851 365.95977,34.005105 365.95978,40.469921 L 365.95978,40.469921 z"
       id="text20"
       style="font-size:60px;stroke-linecap:round;font-family:Helvetica" />
    <path
       d="M 452.1004,199.08203 C 452.1004,191.95315 454.01446,186.3721 457.84259,182.33887 C 461.6707,178.30571 466.6121,176.28911 472.66681,176.28906 C 476.63163,176.28911 480.20584,177.23637 483.38947,179.13086 C 486.57302,181.02543 488.99978,183.66703 490.66974,187.05566 C 492.33962,190.44437 493.17458,194.28714 493.17462,198.58398 C 493.17458,202.93947 492.29567,206.83595 490.5379,210.27344 C 488.78005,213.71094 486.28982,216.31348 483.0672,218.08105 C 479.84451,219.84863 476.36795,220.73242 472.63751,220.73242 C 468.59452,220.73242 464.98125,219.75586 461.79767,217.80273 C 458.61407,215.84961 456.20196,213.1836 454.56134,209.80469 C 452.92071,206.42579 452.1004,202.85158 452.1004,199.08203 L 452.1004,199.08203 z M 457.95978,199.16992 C 457.95977,204.34572 459.35137,208.42286 462.13458,211.40137 C 464.91777,214.37989 468.40898,215.86914 472.60822,215.86914 C 476.88553,215.86914 480.40604,214.36524 483.16974,211.35742 C 485.93337,208.34962 487.31521,204.08205 487.31525,198.55469 C 487.31521,195.05862 486.72439,192.00686 485.54279,189.39941 C 484.36111,186.79203 482.6326,184.77054 480.35724,183.33496 C 478.08182,181.89945 475.52811,181.18168 472.69611,181.18164 C 468.67265,181.18168 465.21074,182.56351 462.31036,185.32715 C 459.40996,188.09085 457.95977,192.70511 457.95978,199.16992 L 457.95978,199.16992 z M 500.64532,220 L 500.64532,177.05078 L 506.32892,177.05078 L 506.32892,194.6875 L 528.65314,194.6875 L 528.65314,177.05078 L 534.33673,177.05078 L 534.33673,220 L 528.65314,220 L 528.65314,199.75586 L 506.32892,199.75586 L 506.32892,220 L 500.64532,220 z"
       id="text22"
       style="font-size:60px;stroke-linecap:round;font-family:Helvetica" />
  </g>
</svg>
